# xmcd
#
# Track frame offsets:
# 150
# 16751
# 33026
# 47235
# 60508
# 78233
# 93029
# 106145
# 121737
# 136822
# 149480
# 166007
# 184399
# 199810
#
# Disc length: 2850 seconds
#
#
# Revision: 0
# Processed by: cddbd v1.5.2PL0 Copyright (c) Steve Scherf et al.
# Submitted via: FreeRIP 2.945 
#
DISCID=a80b200e
DTITLE=Sétimo Sentido - Alô - 
DYEAR=1900
DGENRE=
TTITLE0=Não Dá Mais
TTITLE1=Fora de Controle
TTITLE2=Se Não Está Aqui
TTITLE3=Me Dá um Gelo
TTITLE4=Alô
TTITLE5=Uma Gota no Oceano
TTITLE6=Vem Curar Minha Dor
TTITLE7=Mulher Aranha
TTITLE8=Barco de Papel
TTITLE9=Meu Namorado
TTITLE10=Espuma da Cerveja
TTITLE11=Perdidas
TTITLE12=Se Não Está Aqui Remix
TTITLE13=Não Te Quero
EXTD=
EXTT0=
EXTT1=
EXTT2=
EXTT3=
EXTT4=
EXTT5=
EXTT6=
EXTT7=
EXTT8=
EXTT9=
EXTT10=
EXTT11=
EXTT12=
EXTT13=
PLAYORDER=
